<?xml version="1.0" encoding="UTF-8"?>
<svg id="Ebene_1" xmlns="http://www.w3.org/2000/svg" viewBox="0 0 844 455">
  <defs>
    <style>
      .cls-1 {
        fill: #fff;
      }

      .cls-2 {
        fill: red;
      }

      .cls-3 {
        fill: #004b5b;
      }

      .cls-4 {
        fill: none;
        stroke: #004b5b;
        stroke-linecap: round;
        stroke-linejoin: round;
        stroke-width: 10px;
      }
    </style>
  </defs>
  <g>
    <path class="cls-4" d="M51.83,36.71s-9,38-6,57"/>
    <path class="cls-4" d="M44.22,73.67c8.01-10.47-18.39-19.96-34.39,4.04s13.78,22.93,34.39-4.04Z"/>
    <path class="cls-4" d="M305.33,35.21c8.01-10.47-10.35-24.85-25,0-11.5,19.5,4.39,26.96,25,0Z"/>
    <path class="cls-4" d="M219.33,43.21c6-16-11-21-21.5,1.5-12.2,26.14,9.58,30.28,21.5-1.5Z"/>
    <path class="cls-4" d="M67.33,73.21c23,2,24-12,22-17s-32.64-2.95-32.83,22.56c-.17,21.44,28.94,6.5,38.33-.06"/>
    <path class="cls-4" d="M132.83,56.71c8-6,4.5-16.5-13.5-10.5-18,6-17,14,0,19s19.74,13.13,1,18.54c-12,3.46-14,.46-14,.46"/>
    <path class="cls-4" d="M154.33,22.21c1,9-2.26,38.68-8.13,49.84,0,0,14.13-30.84,29.13-30.84,15,0,3.52,17.57,3.76,23.79"/>
    <path class="cls-4" d="M223.33,33.21c-3,10,1.35,29.48,1.35,29.48"/>
    <path class="cls-4" d="M247.33,5.21c-5,14-12.3,51.5-4,57,5.31,3.52,12,2,14-8"/>
    <path class="cls-4" d="M279.47,5.21c-2.14,9-8.14,41-6.14,51"/>
    <path class="cls-3" d="M22.04,137.26c7.66.86,16.44-.66,24.28-2.08,25.31-5.02,50.08-12.99,74.36-21.81,14.43-5.07,28.13-11.63,42.59-16.73,10.32-3.66,21.12-6.63,31.79-9.12,25.72-5.87,51.9-9.59,78.36-10.25,4.38-.09,9.09,0,13.5.41,1.53.2,3.66.4,4.75,2.12,1.53,2.41-.02,5.14-2.49,5.86-6.69,1.99-28.76,4.95-35.98,6.29-17.12,2.87-34.16,6.1-50.92,10.33-16.46,4.3-33.34,9.17-47.96,17.84-1.33.83-3.09.41-3.91-.94-.8-1.33-.39-3.05.93-3.87,7.69-4.77,15.89-8.23,24.18-11.27,35.11-12.79,75.54-18,111.07-24.97-2.04,1.34-1.81,4.61.28,5.71.25.12.23.11.31.14.08.02.03.01.05.02-.1-.03-.63-.11-1.07-.15-2.88-.24-6.41-.31-9.39-.31-22.49.45-45.12,3.61-67.24,8.07-21.04,4.4-41.72,10.41-61.34,19.3-24.2,10.39-48.95,19.25-74.29,26.53-12.78,3.57-25.71,6.89-38.99,8.52-4.53.51-9.12.86-14.28.26-6.59-.99-5.45-10.73,1.41-9.9h0Z"/>
  </g>
  <g>
    <path id="keil" class="cls-2" d="M843.83,306.49L-.07,455.29V184.59L843.83,35.78v270.7Z"/>
    <g id="linke-schriftzug">
      <path id="Vector" class="cls-1" d="M167.66,257.71c-6.34-7.79-14.36-13.57-24.06-17.34-9.7-3.76-20.48-4.61-32.35-2.51l-37.05,6.53.08,133.67,48.9-8.62c13.21-2.33,24.5-7.85,33.84-16.56,9.34-8.72,16.05-19.12,20.08-31.24,4.04-12.1,4.97-24.34,2.8-36.69-1.83-10.37-5.92-19.46-12.25-27.25h0ZM144.75,313.03c-1.76,6.62-4.85,12.25-9.25,16.91-4.4,4.67-9.62,7.52-15.67,8.6l-12.04,2.12.14-70.7,7.6-1.34c5.06-.89,9.78-.35,14.13,1.62,4.36,1.98,7.88,4.98,10.57,9.02,2.69,4.05,4.5,8.73,5.44,14.03,1.16,6.55.86,13.13-.92,19.74Z"/>
      <path id="Vector_2" class="cls-1" d="M218.41,214.85c-3.56-2.5-7.56-3.34-12.01-2.56-3.34.59-6.38,1.95-9.11,4.09-2.74,2.13-4.63,4.76-5.68,7.87-1.05,3.11-1.28,6.27-.71,9.49.76,4.33,2.86,7.74,6.29,10.26,3.44,2.52,7.56,3.35,12.38,2.5,3.09-.54,5.97-1.88,8.66-4,2.69-2.12,4.61-4.76,5.77-7.9,1.17-3.13,1.46-6.37.87-9.7-.74-4.2-2.89-7.55-6.45-10.03h-.01Z"/>
      <path id="Vector_3" class="cls-1" d="M192.61,259.62l.2,97.56,30.56-5.39-.2-97.56-30.56,5.39Z"/>
      <path id="Vector_4" class="cls-1" d="M399.75,186.99l-33.71,5.94.08,133.67,86.13-15.19.06-33.24-52.42,9.25-.14-100.44Z"/>
      <path id="Vector_5" class="cls-1" d="M592.68,207.98c-3.11-6.08-7.58-10.54-13.44-13.38-5.85-2.86-12.6-3.6-20.25-2.25-5.18.92-9.69,2.82-13.5,5.73-3.82,2.91-6.78,6.32-8.89,10.26l-.93.17-4.38-8.58-22.23,3.92.21,97.56,30.56-5.39-.12-55.94c0-2.93.43-5.68,1.32-8.26.88-2.57,2.31-4.58,4.29-6,1.98-1.42,4.07-2.34,6.29-2.74,2.97-.52,5.57-.22,7.8.92,2.23,1.13,3.86,2.94,4.89,5.44,1.01,2.5,1.59,5.26,1.75,8.28l.1,53.65,31.3-5.52v-56.34c-.06-8.27-1.64-15.43-4.75-21.51Z"/>
      <path id="Vector_6" class="cls-1" d="M696.67,170.74l-34.63,6.1-21.06,42.03.06-74.42-30.56,5.39-.11,133.71,30.57-5.39.02-42.47,23.68,38.29,34.27-6.04-29.52-44.69,27.28-52.5Z"/>
      <path id="Vector_7" class="cls-1" d="M464.26,211.72l.2,97.56,30.56-5.39-.2-97.56-30.56,5.39Z"/>
      <path id="Vector_8" class="cls-1" d="M521.43,129.63l-81.41,47.58,37.51,20.28,43.91-67.86Z"/>
      <path id="Vector_9" class="cls-1" d="M785.82,204.95c.05-3-.18-5.92-.68-8.76-1.46-8.27-4.64-15.32-9.55-21.13-4.91-5.82-10.8-9.93-17.65-12.36-6.86-2.42-14.12-2.95-21.77-1.6-9.64,1.7-18,5.88-25.1,12.54-7.1,6.67-12.19,14.7-15.24,24.08-3.05,9.39-3.79,18.65-2.17,27.79,1.5,8.52,4.74,15.84,9.7,21.97s10.96,10.51,17.99,13.15c7.02,2.64,14.73,3.23,23.14,1.75,7.16-1.27,13.5-3.71,19.03-7.37,5.54-3.65,10.1-8.25,13.71-13.78,2.92-4.47,5.11-9.02,6.68-13.64h-29.53c-1.18,1.99-2.85,3.91-5,5.75-2.16,1.84-4.91,3.06-8.24,3.65-3.09.54-6.04.27-8.83-.83-2.81-1.1-5.05-2.99-6.73-5.69-1.12-1.78-2-3.91-2.7-6.31l62.39-10.99c.33-2.47.52-5.22.55-8.21ZM721.93,205.61c.02-.13.02-.27.05-.4.9-4.99,2.76-9.23,5.58-12.73,2.82-3.48,6.33-5.61,10.54-6.34,3.21-.57,6.16-.29,8.84.83,2.68,1.12,4.83,2.87,6.46,5.26,1.52,2.23,2.53,4.67,3.07,7.29l-34.54,6.09Z"/>
      <path id="Vector_10" class="cls-1" d="M316.74,255.96c-4.92-5.82-10.79-9.93-17.65-12.36-6.86-2.42-14.12-2.95-21.77-1.6-9.63,1.7-18,5.88-25.1,12.54-7.1,6.67-12.18,14.68-15.24,24.08-3.05,9.39-3.77,18.65-2.17,27.79,1.51,8.52,4.74,15.84,9.7,21.97,4.97,6.12,10.96,10.51,17.98,13.16,7.03,2.64,14.73,3.23,23.14,1.75,7.16-1.27,13.5-3.71,19.04-7.37,5.53-3.65,10.1-8.25,13.71-13.78,2.92-4.47,5.12-9.03,6.68-13.64h-29.52c-1.18,1.99-2.85,3.91-5,5.75-2.16,1.84-4.91,3.06-8.23,3.65-3.09.54-6.04.27-8.84-.83-2.81-1.1-5.05-2.99-6.73-5.69-1.12-1.78-2-3.91-2.7-6.31l62.39-10.99c.33-2.47.51-5.21.55-8.21.05-3-.18-5.92-.69-8.76-1.46-8.27-4.64-15.32-9.55-21.13h.01ZM263.09,286.52c.02-.13.02-.27.05-.4.9-4.99,2.76-9.23,5.58-12.73,2.82-3.48,6.33-5.61,10.54-6.34,3.21-.57,6.16-.29,8.84.83,2.68,1.12,4.83,2.87,6.46,5.26,1.52,2.23,2.53,4.67,3.07,7.29l-34.54,6.09Z"/>
    </g>
  </g>
</svg>